<svg width="971" height="291" viewBox="0 0 971 291" fill="none" xmlns="http://www.w3.org/2000/svg">
<path d="M108.7 288L62.5 206.4H42.7V288H0.700002V78.6H79.3C95.5 78.6 109.3 81.5 120.7 87.3C132.1 92.9 140.6 100.6 146.2 110.4C152 120 154.9 130.8 154.9 142.8C154.9 156.6 150.9 169.1 142.9 180.3C134.9 191.3 123 198.9 107.2 203.1L157.3 288H108.7ZM42.7 174.9H77.8C89.2 174.9 97.7 172.2 103.3 166.8C108.9 161.2 111.7 153.5 111.7 143.7C111.7 134.1 108.9 126.7 103.3 121.5C97.7 116.1 89.2 113.4 77.8 113.4H42.7V174.9ZM321.288 248.1H237.888L224.088 288H179.988L255.288 78.3H304.188L379.488 288H335.088L321.288 248.1ZM309.888 214.5L279.588 126.9L249.287 214.5H309.888ZM449.634 78.6V288H407.634V78.6H449.634ZM461.334 35.1L392.334 66.6V36.6L461.334 0.899995V35.1ZM534.03 252.6H628.23V288H485.43V255.6L579.03 114H485.43V78.6H628.23V111L534.03 252.6ZM705.981 112.5V165H776.481V198.3H705.981V253.8H785.481V288H663.981V78.3H785.481V112.5H705.981ZM895.949 290.1C881.349 290.1 868.149 287.6 856.349 282.6C844.749 277.6 835.549 270.4 828.749 261C821.949 251.6 818.449 240.5 818.249 227.7H863.249C863.849 236.3 866.849 243.1 872.249 248.1C877.849 253.1 885.449 255.6 895.049 255.6C904.849 255.6 912.549 253.3 918.149 248.7C923.749 243.9 926.549 237.7 926.549 230.1C926.549 223.9 924.649 218.8 920.849 214.8C917.049 210.8 912.249 207.7 906.449 205.5C900.849 203.1 893.049 200.5 883.049 197.7C869.449 193.7 858.349 189.8 849.749 186C841.349 182 834.049 176.1 827.849 168.3C821.849 160.3 818.849 149.7 818.849 136.5C818.849 124.1 821.949 113.3 828.149 104.1C834.349 94.9 843.049 87.9 854.249 83.1C865.449 78.1 878.249 75.6 892.649 75.6C914.249 75.6 931.749 80.9 945.149 91.5C958.749 101.9 966.249 116.5 967.649 135.3H921.449C921.049 128.1 917.949 122.2 912.149 117.6C906.549 112.8 899.049 110.4 889.649 110.4C881.449 110.4 874.849 112.5 869.849 116.7C865.049 120.9 862.649 127 862.649 135C862.649 140.6 864.449 145.3 868.049 149.1C871.849 152.7 876.449 155.7 881.849 158.1C887.449 160.3 895.249 162.9 905.249 165.9C918.849 169.9 929.949 173.9 938.549 177.9C947.149 181.9 954.549 187.9 960.749 195.9C966.949 203.9 970.049 214.4 970.049 227.4C970.049 238.6 967.149 249 961.349 258.6C955.549 268.2 947.049 275.9 935.849 281.7C924.649 287.3 911.349 290.1 895.949 290.1Z" fill="#519E26"/>
</svg>
