<svg width="14" height="18" viewBox="0 0 14 18" fill="none" xmlns="http://www.w3.org/2000/svg">
<path d="M2.83325 0.666687C2.17021 0.666687 1.53433 0.930079 1.06548 1.39892C0.596644 1.86776 0.333252 2.50365 0.333252 3.16669V14.8334C0.333252 15.4964 0.596644 16.1323 1.06548 16.6011C1.53433 17.07 2.17021 17.3334 2.83325 17.3334H11.1666C11.8296 17.3334 12.4655 17.07 12.9344 16.6011C13.4032 16.1323 13.6666 15.4964 13.6666 14.8334V14C13.6666 13.5398 13.2935 13.1667 12.8333 13.1667C12.373 13.1667 11.9999 13.5398 11.9999 14V14.8334C11.9999 15.0544 11.9121 15.2663 11.7558 15.4226C11.5996 15.5789 11.3876 15.6667 11.1666 15.6667H2.83325C2.61224 15.6667 2.40028 15.5789 2.244 15.4226C2.08772 15.2663 1.99992 15.0544 1.99992 14.8334V3.16669C1.99992 2.94567 2.08772 2.73371 2.244 2.57743C2.40028 2.42115 2.61224 2.33335 2.83325 2.33335H11.1666C11.3876 2.33335 11.5996 2.42115 11.7558 2.57743C11.9121 2.73371 11.9999 2.94567 11.9999 3.16669V4.00002C11.9999 4.46026 12.373 4.83335 12.8333 4.83335C13.2935 4.83335 13.6666 4.46026 13.6666 4.00002V3.16669C13.6666 2.50365 13.4032 1.86776 12.9344 1.39892C12.4655 0.930079 11.8296 0.666687 11.1666 0.666687H2.83325Z" fill="#D55F5A"/>
<path d="M10.9225 5.91076C10.5971 5.58533 10.0694 5.58533 9.744 5.91076C9.41856 6.2362 9.41856 6.76384 9.744 7.08928L10.8214 8.16669H6.99992C6.53968 8.16669 6.16658 8.53978 6.16658 9.00002C6.16658 9.46026 6.53968 9.83335 6.99992 9.83335H10.8214L9.744 10.9108C9.41856 11.2362 9.41856 11.7638 9.744 12.0893C10.0694 12.4147 10.5971 12.4147 10.9225 12.0893L13.4225 9.58928C13.7479 9.26384 13.7479 8.7362 13.4225 8.41076L10.9225 5.91076Z" fill="#D55F5A"/>
</svg>
