<svg width="18" height="18" viewBox="0 0 18 18" fill="none" xmlns="http://www.w3.org/2000/svg">
<path fill-rule="evenodd" clip-rule="evenodd" d="M12.0001 0.666626C11.6465 0.666626 11.3073 0.807101 11.0573 1.05715C10.8072 1.3072 10.6667 1.64634 10.6667 1.99996V5.66662H7.00008C6.64646 5.66662 6.30732 5.8071 6.05727 6.05715C5.80722 6.3072 5.66675 6.64634 5.66675 6.99996V11.5H2.00008C1.64646 11.5 1.30732 11.6404 1.05727 11.8905C0.807223 12.1405 0.666748 12.4797 0.666748 12.8333V16C0.666748 16.3536 0.807223 16.6927 1.05727 16.9428C1.30732 17.1928 1.64646 17.3333 2.00008 17.3333H16.0001C16.3537 17.3333 16.6928 17.1928 16.9429 16.9428C17.1929 16.6927 17.3334 16.3536 17.3334 16V1.99996C17.3334 1.64634 17.1929 1.3072 16.9429 1.05715C16.6928 0.807101 16.3537 0.666626 16.0001 0.666626H12.0001ZM7.33341 7.33329H10.6667V15.6666H7.33341V7.33329ZM15.6667 15.6666H12.3334V2.33329H15.6667V15.6666ZM5.66675 13.1666V15.6666H2.33341V13.1666H5.66675Z" fill="#F2F2F2"/>
</svg>
