<svg width="20" height="21" viewBox="0 0 20 21" fill="none" xmlns="http://www.w3.org/2000/svg">
<path d="M9 6.5C6.14941 6.5 4 8.0875 4 10.1931C4 10.2118 4.00313 10.2294 4.00352 10.2479H4V16.8069C4 18.9125 6.14941 20.5 9 20.5C11.8506 20.5 14 18.9125 14 16.8069V10.2481H13.9965C13.9969 10.2297 14 10.2118 14 10.1933C14 8.08775 11.8506 6.5 9 6.5ZM5.42852 13.5003C5.42852 13.3383 5.50918 13.1556 5.64492 12.9719C6.51973 13.5441 7.6832 13.8859 9 13.8859C10.3162 13.8859 11.4791 13.5443 12.3537 12.9727C12.4893 13.1567 12.5715 13.3396 12.5715 13.5C12.5715 14.2238 11.1471 15.3186 9 15.3186C6.85293 15.3186 5.42852 14.2241 5.42852 13.5003ZM9 8.3742C11.1471 8.3742 12.5715 9.469 12.5715 10.1933C12.5715 10.9171 11.1471 12.0119 9 12.0119C6.85293 12.0119 5.42852 10.9171 5.42852 10.1933C5.42852 9.469 6.85293 8.3742 9 8.3742ZM9 18.6263C6.85293 18.6263 5.42852 17.5315 5.42852 16.8072C5.42852 16.646 5.50996 16.4631 5.64551 16.2794C6.52031 16.8513 7.6834 17.1931 9 17.1931C10.3164 17.1931 11.4797 16.8515 12.3543 16.2797C12.49 16.4634 12.5713 16.6463 12.5713 16.8075C12.5715 17.5315 11.1471 18.6263 9 18.6263Z" fill="#F2F2F2"/>
<path d="M19 4.22477C19 2.3862 16.9581 1 14.25 1C11.5419 1 9.5 2.3862 9.5 4.22477C9.5 4.2411 9.50297 4.25654 9.50334 4.27265H9.5V6.72713H10.8571V6.52444C11.7063 7.10187 12.8946 7.44909 14.25 7.44909C15.5004 7.44909 16.6051 7.15086 17.436 6.65173C17.5648 6.81237 17.6429 6.97211 17.6429 7.11216C17.6429 7.74418 16.2897 8.70016 14.25 8.70016H12.8933V10.3365H14.25C15.5006 10.3365 16.6057 10.0383 17.4366 9.5389C17.5655 9.69931 17.6427 9.85905 17.6427 9.99978C17.6427 10.6322 16.2895 11.5882 14.2498 11.5882L13.7694 11.5909C13.4742 11.594 13.1883 11.5974 12.9096 11.5884L12.8764 13.2241C13.0256 13.2286 13.1766 13.2301 13.3306 13.2301C13.4778 13.2301 13.6275 13.229 13.7796 13.2275L14.2498 13.2248C15.5011 13.2248 16.6066 12.9261 17.4377 12.4263C17.567 12.588 17.6425 12.7487 17.6425 12.8876C17.6425 13.5201 16.2893 14.4761 14.2496 14.4761H12.8929V16.1124H14.2496C15.501 16.1124 16.6063 15.8137 17.4375 15.3139C17.567 15.4754 17.6425 15.6361 17.6425 15.7752C17.6425 16.4077 16.2893 17.3637 14.2496 17.3637H12.8929V19H14.2496C16.9577 19 18.9996 17.6138 18.9996 15.7752C18.9996 15.76 18.998 15.7428 18.9976 15.7274H18.9996V4.27265H18.9963C18.9968 4.25654 19 4.24088 19 4.22477ZM10.8571 4.22477C10.8571 3.5923 12.2103 2.63632 14.25 2.63632C16.2897 2.63632 17.6429 3.5923 17.6429 4.22477C17.6429 4.85679 16.2897 5.81277 14.25 5.81277C12.2103 5.81277 10.8571 4.85679 10.8571 4.22477Z" fill="#F2F2F2"/>
</svg>
