<svg width="18" height="18" viewBox="0 0 18 18" fill="none" xmlns="http://www.w3.org/2000/svg">
<path d="M2.20387 7.48793C3.27262 8.44357 4.71858 8.64835 5.91306 8.64835C6.60461 8.64835 7.29615 8.58009 7.73622 8.44357V12.6757C5.41012 13.017 3.58696 14.9966 3.58696 17.3174V18H13.4572V17.3174C13.4572 14.86 11.4454 12.8805 8.93071 12.6757V7.76097C9.81086 8.17053 11.1939 8.64835 12.577 8.64835C13.2057 8.64835 13.8344 8.58009 14.4002 8.30705C17.0406 7.14663 17.9208 3.11928 17.9836 2.9145C18.0465 2.64146 17.9208 2.36842 17.7322 2.16364C17.6064 2.09538 14.3373 -0.0889492 11.6969 1.07147C10.3138 1.68582 9.24505 3.11928 8.61637 4.34796C8.3649 3.2558 7.79909 2.02712 6.79321 1.20799C4.46711 -0.839811 0.632183 0.320612 0.44358 0.388872C0.192109 0.457132 0.00350708 0.730173 0.00350708 1.00321C0.00350708 1.20799 -0.185096 5.50839 2.20387 7.48793ZM12.137 16.7031H4.90718C5.28439 15.2013 6.73034 14.0409 8.49064 14.0409C10.3138 14.0409 11.8226 15.2013 12.137 16.7031ZM12.1998 2.43668C13.7715 1.75408 15.8461 2.70972 16.6634 3.18754C16.3491 4.21144 15.5318 6.39577 13.9601 7.14663C12.7028 7.69271 11.1311 7.28315 9.99946 6.80533L14.5259 4.89404C14.7774 4.75752 14.9031 4.55274 14.9031 4.2797C14.9031 4.21144 14.9031 4.14318 14.8403 4.00666C14.7145 3.66536 14.3373 3.46058 14.023 3.5971L9.49652 5.50839C10.0623 4.34796 10.9425 2.98276 12.1998 2.43668ZM6.0388 2.2319C7.17041 3.18754 7.54762 4.96231 7.67336 6.19099L3.7127 2.77798C3.46123 2.5732 3.02115 2.5732 2.83255 2.9145C2.76968 3.05102 2.70681 3.18754 2.70681 3.32406C2.70681 3.52884 2.76968 3.73362 2.95828 3.87014L6.91895 7.28315C5.78733 7.41967 4.15277 7.41967 3.02115 6.46403C1.5752 5.23535 1.38659 2.70972 1.32373 1.61756C2.26674 1.34451 4.59284 1.00321 6.0388 2.2319Z" fill="#F2F2F2"/>
</svg>
