<svg width="20" height="20" viewBox="0 0 20 20" fill="none" xmlns="http://www.w3.org/2000/svg">
<path fill-rule="evenodd" clip-rule="evenodd" d="M9.99992 6.66665C9.11586 6.66665 8.26802 7.01783 7.6429 7.64296C7.01777 8.26808 6.66658 9.11592 6.66658 9.99998C6.66658 10.884 7.01777 11.7319 7.6429 12.357C8.26802 12.9821 9.11586 13.3333 9.99992 13.3333C10.884 13.3333 11.7318 12.9821 12.3569 12.357C12.9821 11.7319 13.3333 10.884 13.3333 9.99998C13.3333 9.11592 12.9821 8.26808 12.3569 7.64296C11.7318 7.01783 10.884 6.66665 9.99992 6.66665ZM8.82141 8.82147C9.13397 8.50891 9.55789 8.33331 9.99992 8.33331C10.4419 8.33331 10.8659 8.50891 11.1784 8.82147C11.491 9.13403 11.6666 9.55795 11.6666 9.99998C11.6666 10.442 11.491 10.8659 11.1784 11.1785C10.8659 11.4911 10.4419 11.6666 9.99992 11.6666C9.55789 11.6666 9.13397 11.4911 8.82141 11.1785C8.50885 10.8659 8.33325 10.442 8.33325 9.99998C8.33325 9.55795 8.50885 9.13403 8.82141 8.82147Z" fill="#F2F2F2"/>
<path fill-rule="evenodd" clip-rule="evenodd" d="M9.15075 0.833313C8.77221 0.833313 8.44123 1.08845 8.34487 1.45452L7.92257 3.05885L6.58087 3.62445L5.55383 2.71071C5.22407 2.41734 4.72276 2.43196 4.41066 2.74406L2.744 4.41072C2.44208 4.71264 2.4172 5.19392 2.68639 5.52535L3.5865 6.63361L3.03453 7.99154L1.47713 8.35513C1.10002 8.44317 0.833252 8.77939 0.833252 9.16665V10.8333C0.833252 11.2091 1.08474 11.5384 1.44726 11.6373L3.057 12.0764L3.62412 13.4217L2.7113 14.4453C2.41729 14.775 2.43163 15.2769 2.744 15.5892L4.41066 17.2559C4.71299 17.5582 5.19506 17.5827 5.52646 17.3126L6.63432 16.4094L7.95888 16.9543L8.35861 18.5373C8.45205 18.9074 8.78493 19.1666 9.16658 19.1666H10.8333C11.2148 19.1666 11.5475 18.9076 11.6411 18.5377L12.0419 16.954L13.4107 16.3871C13.5485 16.5026 13.7065 16.6382 13.8637 16.7751C14.0199 16.9111 14.1651 17.0393 14.2714 17.1336C14.3244 17.1807 14.3677 17.2192 14.3975 17.2459L14.4428 17.2864C14.7723 17.582 15.2761 17.5689 15.5892 17.2559L17.2558 15.5892C17.5625 15.2825 17.5827 14.7918 17.3022 14.461L16.3944 13.3905L16.9561 12.0338L18.5428 11.6215C18.9102 11.5261 19.1666 11.1945 19.1666 10.815V9.16665C19.1666 8.78555 18.9081 8.453 18.5387 8.35904L16.9618 7.95785L16.4015 6.60443L17.303 5.53794C17.5827 5.20706 17.5622 4.71707 17.2558 4.41072L15.5892 2.74406C15.2816 2.43646 14.7891 2.41721 14.4585 2.69985L13.3998 3.60471L11.9988 3.02864L11.585 1.45479C11.4888 1.08859 11.1577 0.833313 10.7791 0.833313H9.15075ZM15.5346 14.9535L14.9644 15.5236L14.9582 15.5182C14.6504 15.2502 14.254 14.9111 14.0304 14.7512C13.7964 14.5839 13.4926 14.5492 13.2269 14.6592L11.0177 15.5742C10.7746 15.6749 10.5933 15.8846 10.5287 16.1397L10.1845 17.5H9.81565L9.47206 16.1393C9.40742 15.8833 9.22528 15.6731 8.98111 15.5726L6.80944 14.6793C6.52666 14.563 6.20288 14.6109 5.96588 14.8041L5.05687 15.5451L4.47901 14.9672L5.21854 14.1379C5.43263 13.8979 5.48943 13.556 5.36448 13.2596L4.43531 11.0554C4.3359 10.8196 4.13364 10.6425 3.88674 10.5752L2.49992 10.1969V9.82784L3.83354 9.51649C4.097 9.45498 4.31421 9.26941 4.41608 9.01877L5.31608 6.80461C5.43055 6.523 5.38259 6.2014 5.19095 5.96544L4.45385 5.05789L5.03332 4.47842L5.86601 5.21924C6.10607 5.43282 6.44754 5.48935 6.74362 5.36454L8.94779 4.43537C9.18602 4.33494 9.36416 4.12963 9.42997 3.87961L9.79312 2.49998H10.1365L10.4923 3.85351C10.5587 4.10615 10.7398 4.31304 10.9814 4.41238L13.2372 5.33988C13.5264 5.45879 13.8578 5.40578 14.0955 5.20261L14.9556 4.46748L15.5354 5.04732L14.801 5.91619C14.5997 6.15429 14.5482 6.48482 14.6674 6.77288L15.5816 8.98122C15.6822 9.22408 15.8914 9.40528 16.1461 9.47009L17.4999 9.81451V10.1705L16.1353 10.5251C15.8824 10.5908 15.6749 10.7714 15.575 11.0129L14.66 13.2229C14.5405 13.5114 14.5924 13.8425 14.7943 14.0806L15.5346 14.9535Z" fill="#F2F2F2"/>
</svg>
